<svg xmlns="http://www.w3.org/2000/svg" width="45" height="45" fill="none" viewBox="0 0 45 45">
  <path fill="#1A1E27" d="M18.956 8.456c2.89.005 10.514.01 11.441.005.794.136 1.468.479 1.843 1.216.462.91.272 1.772-.255 2.62-1.452 2.336-3.227 4.89-4.706 7.306-.07.117.014.27.153.27.579-.004 3.718-.289 4.57-.104.86.185 1.241.416 1.668 1.525.084.568-.168 1.406-.785 2.01-3.594 3.083-10.314 9.113-15.372 12.761-.683.492-1.42.582-2.01.373-.87-.307-1.271-1.134-1.29-2.015-.014-.677.269-1.324.44-1.98.353-1.356.995-2.729 1.375-4.077.014-.207.183-.514-.239-.46l-2.098.202c-1.082.12-2.232-.849-2.365-1.893-.041-.484.021-.495.07-.897 1.52-4.269 5.122-14.33 5.36-15.117.34-1.109 1.09-1.639 2.203-1.742l-.003-.003Z"/>
</svg>
