<svg xmlns="http://www.w3.org/2000/svg" width="45" height="45" fill="none" viewBox="0 0 45 45">
  <path fill="#1A1E27" d="m22.5 32.83-1.851-4.059-4.073-1.844 4.073-1.845 1.851-4.058 1.851 4.058 4.073 1.845-4.073 1.844L22.5 32.83Zm-10.366 4.426a2.86 2.86 0 0 1-2.093-.866 2.84 2.84 0 0 1-.87-2.085V13.646c0-.812.29-1.506.87-2.084a2.858 2.858 0 0 1 2.093-.867h1.48V7.744h2.962v2.95h11.848v-2.95h2.961v2.95h1.481c.815 0 1.512.29 2.093.868.58.578.87 1.273.87 2.084v20.659a2.84 2.84 0 0 1-.87 2.085 2.86 2.86 0 0 1-2.093.866H12.134Zm0-2.951h20.732V19.549H12.134v14.756Z"/>
</svg>
