<svg xmlns="http://www.w3.org/2000/svg" width="45" height="45" fill="none" viewBox="0 0 45 45">
  <path fill="#1A1E27" d="M37.673 36.358a1.15 1.15 0 0 1-1.008.577H8.333a1.15 1.15 0 0 1-1.007-.577 1.1 1.1 0 0 1 0-1.154 17.587 17.587 0 0 1 9.8-7.82 10.425 10.425 0 0 1-4.38-5.047 10.272 10.272 0 0 1-.386-6.637 10.385 10.385 0 0 1 3.765-5.509A10.599 10.599 0 0 1 22.5 8.065c2.303 0 4.543.747 6.375 2.126a10.385 10.385 0 0 1 3.764 5.51c.61 2.194.475 4.525-.386 6.636a10.424 10.424 0 0 1-4.378 5.046 17.587 17.587 0 0 1 9.799 7.82 1.102 1.102 0 0 1 0 1.155Z"/>
</svg>
